<mxfile host="app.diagrams.net" agent="Mozilla/5.0 (Windows NT 10.0; Win64; x64) AppleWebKit/537.36 (KHTML, like Gecko) Chrome/128.0.0.0 Safari/537.36" version="24.7.13">
  <diagram name="Page-1" id="zdLS6XzUSG3x8lp1yBCd">
    <mxGraphModel dx="1434" dy="841" grid="1" gridSize="10" guides="1" tooltips="1" connect="1" arrows="1" fold="1" page="1" pageScale="1" pageWidth="827" pageHeight="1169" background="none" math="0" shadow="0">
      <root>
        <mxCell id="0" />
        <mxCell id="1" parent="0" />
        <mxCell id="ZnwNd1amS8vzW6LrnCgQ-21" value="" style="ellipse;whiteSpace=wrap;html=1;aspect=fixed;strokeWidth=2;fontSize=15;" parent="1" vertex="1">
          <mxGeometry x="270" y="380" width="60" height="60" as="geometry" />
        </mxCell>
        <mxCell id="_PjYLiZ7u1xAUvMMXe8_-4" value="&lt;font face=&quot;Helvetica&quot; style=&quot;font-size: 24px;&quot;&gt;3&lt;/font&gt;" style="ellipse;whiteSpace=wrap;html=1;aspect=fixed;strokeWidth=2;" parent="1" vertex="1">
          <mxGeometry x="400" y="300" width="40" height="40" as="geometry" />
        </mxCell>
        <mxCell id="ZnwNd1amS8vzW6LrnCgQ-4" value="&lt;span style=&quot;font-size: 24px;&quot;&gt;&lt;span style=&quot;font-style: italic;&quot;&gt;B&lt;/span&gt;&lt;span style=&quot;&quot;&gt;&lt;sub style=&quot;&quot;&gt;0&lt;/sub&gt;&lt;/span&gt;&lt;/span&gt;" style="text;html=1;align=center;verticalAlign=middle;resizable=0;points=[];autosize=1;strokeColor=none;fillColor=none;strokeWidth=1;fontFamily=Times New Roman;fontStyle=0" parent="1" vertex="1">
          <mxGeometry x="275" y="385" width="50" height="50" as="geometry" />
        </mxCell>
        <mxCell id="ZnwNd1amS8vzW6LrnCgQ-15" value="&lt;var style=&quot;font-size: 24px;&quot; class=&quot;vector&quot;&gt;&lt;span style=&quot;font-size: 24px;&quot;&gt;&lt;font style=&quot;font-size: 24px;&quot;&gt;⃗&lt;/font&gt;&lt;/span&gt;&lt;/var&gt;" style="text;html=1;align=center;verticalAlign=middle;resizable=0;points=[];autosize=1;strokeColor=none;fillColor=none;fontFamily=Times New Roman;fontSize=24;" parent="1" vertex="1">
          <mxGeometry x="290" y="380" width="20" height="40" as="geometry" />
        </mxCell>
        <mxCell id="ZnwNd1amS8vzW6LrnCgQ-23" value="" style="ellipse;whiteSpace=wrap;html=1;aspect=fixed;strokeWidth=2;fontSize=15;" parent="1" vertex="1">
          <mxGeometry x="390" y="380" width="60" height="60" as="geometry" />
        </mxCell>
        <mxCell id="ZnwNd1amS8vzW6LrnCgQ-24" value="&lt;span style=&quot;font-size: 24px;&quot;&gt;&lt;span style=&quot;font-style: italic;&quot;&gt;B&lt;/span&gt;&lt;span style=&quot;&quot;&gt;&lt;sub style=&quot;&quot;&gt;1&lt;/sub&gt;&lt;/span&gt;&lt;/span&gt;" style="text;html=1;align=center;verticalAlign=middle;resizable=0;points=[];autosize=1;strokeColor=none;fillColor=none;strokeWidth=1;fontFamily=Times New Roman;fontStyle=0" parent="1" vertex="1">
          <mxGeometry x="395" y="385" width="50" height="50" as="geometry" />
        </mxCell>
        <mxCell id="ZnwNd1amS8vzW6LrnCgQ-25" value="&lt;var style=&quot;font-size: 24px;&quot; class=&quot;vector&quot;&gt;&lt;span style=&quot;font-size: 24px;&quot;&gt;&lt;font style=&quot;font-size: 24px;&quot;&gt;⃗&lt;/font&gt;&lt;/span&gt;&lt;/var&gt;" style="text;html=1;align=center;verticalAlign=middle;resizable=0;points=[];autosize=1;strokeColor=none;fillColor=none;fontFamily=Times New Roman;fontSize=24;" parent="1" vertex="1">
          <mxGeometry x="410" y="380" width="20" height="40" as="geometry" />
        </mxCell>
        <mxCell id="ZnwNd1amS8vzW6LrnCgQ-26" value="" style="ellipse;whiteSpace=wrap;html=1;aspect=fixed;strokeWidth=2;fontSize=15;" parent="1" vertex="1">
          <mxGeometry x="510" y="380" width="60" height="60" as="geometry" />
        </mxCell>
        <mxCell id="ZnwNd1amS8vzW6LrnCgQ-27" value="&lt;span style=&quot;font-size: 24px;&quot;&gt;&lt;span style=&quot;font-style: italic;&quot;&gt;B&lt;/span&gt;&lt;span style=&quot;&quot;&gt;&lt;sub style=&quot;&quot;&gt;3&lt;/sub&gt;&lt;/span&gt;&lt;/span&gt;" style="text;html=1;align=center;verticalAlign=middle;resizable=0;points=[];autosize=1;strokeColor=none;fillColor=none;strokeWidth=1;fontFamily=Times New Roman;fontStyle=0" parent="1" vertex="1">
          <mxGeometry x="515" y="385" width="50" height="50" as="geometry" />
        </mxCell>
        <mxCell id="ZnwNd1amS8vzW6LrnCgQ-28" value="&lt;var style=&quot;font-size: 24px;&quot; class=&quot;vector&quot;&gt;&lt;span style=&quot;font-size: 24px;&quot;&gt;&lt;font style=&quot;font-size: 24px;&quot;&gt;⃗&lt;/font&gt;&lt;/span&gt;&lt;/var&gt;" style="text;html=1;align=center;verticalAlign=middle;resizable=0;points=[];autosize=1;strokeColor=none;fillColor=none;fontFamily=Times New Roman;fontSize=24;" parent="1" vertex="1">
          <mxGeometry x="530" y="380" width="20" height="40" as="geometry" />
        </mxCell>
        <mxCell id="ZnwNd1amS8vzW6LrnCgQ-29" value="" style="ellipse;whiteSpace=wrap;html=1;aspect=fixed;strokeWidth=2;fontSize=15;" parent="1" vertex="1">
          <mxGeometry x="390" y="200" width="60" height="60" as="geometry" />
        </mxCell>
        <mxCell id="ZnwNd1amS8vzW6LrnCgQ-30" value="&lt;span style=&quot;font-size: 24px;&quot;&gt;&lt;span style=&quot;font-style: italic;&quot;&gt;B&lt;/span&gt;&lt;span style=&quot;&quot;&gt;&lt;sub style=&quot;&quot;&gt;4&lt;/sub&gt;&lt;/span&gt;&lt;/span&gt;" style="text;html=1;align=center;verticalAlign=middle;resizable=0;points=[];autosize=1;strokeColor=none;fillColor=none;strokeWidth=1;fontFamily=Times New Roman;fontStyle=0" parent="1" vertex="1">
          <mxGeometry x="395" y="205" width="50" height="50" as="geometry" />
        </mxCell>
        <mxCell id="ZnwNd1amS8vzW6LrnCgQ-31" value="&lt;var style=&quot;font-size: 24px;&quot; class=&quot;vector&quot;&gt;&lt;span style=&quot;font-size: 24px;&quot;&gt;&lt;font style=&quot;font-size: 24px;&quot;&gt;⃗&lt;/font&gt;&lt;/span&gt;&lt;/var&gt;" style="text;html=1;align=center;verticalAlign=middle;resizable=0;points=[];autosize=1;strokeColor=none;fillColor=none;fontFamily=Times New Roman;fontSize=24;" parent="1" vertex="1">
          <mxGeometry x="410" y="200" width="20" height="40" as="geometry" />
        </mxCell>
        <mxCell id="ZnwNd1amS8vzW6LrnCgQ-35" value="&lt;font face=&quot;Helvetica&quot; style=&quot;font-size: 24px;&quot;&gt;6&lt;/font&gt;" style="ellipse;whiteSpace=wrap;html=1;aspect=fixed;strokeWidth=2;" parent="1" vertex="1">
          <mxGeometry x="520" y="480" width="40" height="40" as="geometry" />
        </mxCell>
        <mxCell id="ZnwNd1amS8vzW6LrnCgQ-36" value="&lt;font face=&quot;Helvetica&quot; style=&quot;font-size: 24px;&quot;&gt;1&lt;/font&gt;" style="ellipse;whiteSpace=wrap;html=1;aspect=fixed;strokeWidth=2;" parent="1" vertex="1">
          <mxGeometry x="400" y="120" width="40" height="40" as="geometry" />
        </mxCell>
        <mxCell id="ZnwNd1amS8vzW6LrnCgQ-41" value="" style="ellipse;whiteSpace=wrap;html=1;aspect=fixed;strokeWidth=2;fontSize=15;" parent="1" vertex="1">
          <mxGeometry x="510" y="560" width="60" height="60" as="geometry" />
        </mxCell>
        <mxCell id="ZnwNd1amS8vzW6LrnCgQ-42" value="&lt;span style=&quot;font-size: 24px;&quot;&gt;&lt;span style=&quot;font-style: italic;&quot;&gt;B&lt;/span&gt;&lt;span style=&quot;&quot;&gt;&lt;sub style=&quot;&quot;&gt;2&lt;/sub&gt;&lt;/span&gt;&lt;/span&gt;" style="text;html=1;align=center;verticalAlign=middle;resizable=0;points=[];autosize=1;strokeColor=none;fillColor=none;strokeWidth=1;fontFamily=Times New Roman;fontStyle=0" parent="1" vertex="1">
          <mxGeometry x="515" y="565" width="50" height="50" as="geometry" />
        </mxCell>
        <mxCell id="ZnwNd1amS8vzW6LrnCgQ-43" value="&lt;var style=&quot;font-size: 24px;&quot; class=&quot;vector&quot;&gt;&lt;span style=&quot;font-size: 24px;&quot;&gt;&lt;font style=&quot;font-size: 24px;&quot;&gt;⃗&lt;/font&gt;&lt;/span&gt;&lt;/var&gt;" style="text;html=1;align=center;verticalAlign=middle;resizable=0;points=[];autosize=1;strokeColor=none;fillColor=none;fontFamily=Times New Roman;fontSize=24;" parent="1" vertex="1">
          <mxGeometry x="530" y="560" width="20" height="40" as="geometry" />
        </mxCell>
        <mxCell id="ZnwNd1amS8vzW6LrnCgQ-44" value="" style="ellipse;whiteSpace=wrap;html=1;aspect=fixed;strokeWidth=2;fontSize=15;" parent="1" vertex="1">
          <mxGeometry x="270" y="200" width="60" height="60" as="geometry" />
        </mxCell>
        <mxCell id="ZnwNd1amS8vzW6LrnCgQ-45" value="&lt;span style=&quot;font-size: 24px;&quot;&gt;&lt;span style=&quot;font-style: italic;&quot;&gt;B&lt;/span&gt;&lt;span style=&quot;&quot;&gt;&lt;sub style=&quot;&quot;&gt;5&lt;/sub&gt;&lt;/span&gt;&lt;/span&gt;" style="text;html=1;align=center;verticalAlign=middle;resizable=0;points=[];autosize=1;strokeColor=none;fillColor=none;strokeWidth=1;fontFamily=Times New Roman;fontStyle=0" parent="1" vertex="1">
          <mxGeometry x="275" y="205" width="50" height="50" as="geometry" />
        </mxCell>
        <mxCell id="ZnwNd1amS8vzW6LrnCgQ-46" value="&lt;var style=&quot;font-size: 24px;&quot; class=&quot;vector&quot;&gt;&lt;span style=&quot;font-size: 24px;&quot;&gt;&lt;font style=&quot;font-size: 24px;&quot;&gt;⃗&lt;/font&gt;&lt;/span&gt;&lt;/var&gt;" style="text;html=1;align=center;verticalAlign=middle;resizable=0;points=[];autosize=1;strokeColor=none;fillColor=none;fontFamily=Times New Roman;fontSize=24;" parent="1" vertex="1">
          <mxGeometry x="290" y="200" width="20" height="40" as="geometry" />
        </mxCell>
        <mxCell id="ZnwNd1amS8vzW6LrnCgQ-47" value="" style="ellipse;whiteSpace=wrap;html=1;aspect=fixed;strokeWidth=2;fontSize=15;" parent="1" vertex="1">
          <mxGeometry x="390" y="20" width="60" height="60" as="geometry" />
        </mxCell>
        <mxCell id="ZnwNd1amS8vzW6LrnCgQ-48" value="&lt;span style=&quot;font-size: 24px;&quot;&gt;&lt;span style=&quot;font-style: italic;&quot;&gt;B&lt;/span&gt;&lt;span style=&quot;&quot;&gt;&lt;sub style=&quot;&quot;&gt;6&lt;/sub&gt;&lt;/span&gt;&lt;/span&gt;" style="text;html=1;align=center;verticalAlign=middle;resizable=0;points=[];autosize=1;strokeColor=none;fillColor=none;strokeWidth=1;fontFamily=Times New Roman;fontStyle=0" parent="1" vertex="1">
          <mxGeometry x="395" y="25" width="50" height="50" as="geometry" />
        </mxCell>
        <mxCell id="ZnwNd1amS8vzW6LrnCgQ-49" value="&lt;var style=&quot;font-size: 24px;&quot; class=&quot;vector&quot;&gt;&lt;span style=&quot;font-size: 24px;&quot;&gt;&lt;font style=&quot;font-size: 24px;&quot;&gt;⃗&lt;/font&gt;&lt;/span&gt;&lt;/var&gt;" style="text;html=1;align=center;verticalAlign=middle;resizable=0;points=[];autosize=1;strokeColor=none;fillColor=none;fontFamily=Times New Roman;fontSize=24;" parent="1" vertex="1">
          <mxGeometry x="410" y="20" width="20" height="40" as="geometry" />
        </mxCell>
        <mxCell id="ZnwNd1amS8vzW6LrnCgQ-50" value="" style="endArrow=none;html=1;rounded=0;entryX=0.5;entryY=0;entryDx=0;entryDy=0;exitX=0.5;exitY=1;exitDx=0;exitDy=0;fontSize=11;strokeWidth=2;" parent="1" source="ZnwNd1amS8vzW6LrnCgQ-35" target="ZnwNd1amS8vzW6LrnCgQ-41" edge="1">
          <mxGeometry width="50" height="50" relative="1" as="geometry">
            <mxPoint x="200" y="590" as="sourcePoint" />
            <mxPoint x="200" y="630" as="targetPoint" />
          </mxGeometry>
        </mxCell>
        <mxCell id="ZnwNd1amS8vzW6LrnCgQ-53" value="&lt;font face=&quot;Helvetica&quot; style=&quot;font-size: 24px;&quot;&gt;0&lt;/font&gt;" style="ellipse;whiteSpace=wrap;html=1;aspect=fixed;strokeWidth=2;" parent="1" vertex="1">
          <mxGeometry x="520" y="120" width="40" height="40" as="geometry" />
        </mxCell>
        <mxCell id="ZnwNd1amS8vzW6LrnCgQ-54" value="" style="ellipse;whiteSpace=wrap;html=1;aspect=fixed;strokeWidth=2;fontSize=15;" parent="1" vertex="1">
          <mxGeometry x="510" y="200" width="60" height="60" as="geometry" />
        </mxCell>
        <mxCell id="ZnwNd1amS8vzW6LrnCgQ-55" value="&lt;span style=&quot;font-size: 24px;&quot;&gt;&lt;span style=&quot;font-style: italic;&quot;&gt;B&lt;/span&gt;&lt;span style=&quot;&quot;&gt;&lt;sub style=&quot;&quot;&gt;7&lt;/sub&gt;&lt;/span&gt;&lt;/span&gt;" style="text;html=1;align=center;verticalAlign=middle;resizable=0;points=[];autosize=1;strokeColor=none;fillColor=none;strokeWidth=1;fontFamily=Times New Roman;fontStyle=0" parent="1" vertex="1">
          <mxGeometry x="515" y="205" width="50" height="50" as="geometry" />
        </mxCell>
        <mxCell id="ZnwNd1amS8vzW6LrnCgQ-56" value="&lt;var style=&quot;font-size: 24px;&quot; class=&quot;vector&quot;&gt;&lt;span style=&quot;font-size: 24px;&quot;&gt;&lt;font style=&quot;font-size: 24px;&quot;&gt;⃗&lt;/font&gt;&lt;/span&gt;&lt;/var&gt;" style="text;html=1;align=center;verticalAlign=middle;resizable=0;points=[];autosize=1;strokeColor=none;fillColor=none;fontFamily=Times New Roman;fontSize=24;" parent="1" vertex="1">
          <mxGeometry x="530" y="200" width="20" height="40" as="geometry" />
        </mxCell>
        <mxCell id="ZnwNd1amS8vzW6LrnCgQ-58" value="" style="endArrow=none;html=1;rounded=0;entryX=0.5;entryY=1;entryDx=0;entryDy=0;exitX=0.5;exitY=0;exitDx=0;exitDy=0;fontSize=11;strokeWidth=2;" parent="1" source="ZnwNd1amS8vzW6LrnCgQ-54" target="ZnwNd1amS8vzW6LrnCgQ-53" edge="1">
          <mxGeometry width="50" height="50" relative="1" as="geometry">
            <mxPoint x="630" y="490" as="sourcePoint" />
            <mxPoint x="630" y="450" as="targetPoint" />
          </mxGeometry>
        </mxCell>
        <mxCell id="hOlZU20SFHRlqGnEyY6V-10" value="&lt;font size=&quot;1&quot; face=&quot;Times New Roman&quot;&gt;&lt;span style=&quot;font-size: 20px;&quot;&gt;&lt;b&gt;0&lt;/b&gt;&lt;/span&gt;&lt;/font&gt;" style="text;html=1;align=center;verticalAlign=middle;resizable=0;points=[];autosize=1;strokeColor=none;fillColor=none;" parent="1" vertex="1">
          <mxGeometry x="480" y="70" width="30" height="40" as="geometry" />
        </mxCell>
        <mxCell id="Zt5FTZZe3lsU1F_ZuzoK-1" value="" style="endArrow=none;html=1;rounded=0;entryX=1;entryY=1;entryDx=0;entryDy=0;exitX=0;exitY=0;exitDx=0;exitDy=0;fontSize=11;strokeWidth=2;" edge="1" parent="1" source="ZnwNd1amS8vzW6LrnCgQ-53" target="ZnwNd1amS8vzW6LrnCgQ-47">
          <mxGeometry width="50" height="50" relative="1" as="geometry">
            <mxPoint x="630" y="570" as="sourcePoint" />
            <mxPoint x="550" y="170" as="targetPoint" />
          </mxGeometry>
        </mxCell>
        <mxCell id="Zt5FTZZe3lsU1F_ZuzoK-2" value="" style="endArrow=none;html=1;rounded=0;entryX=0.5;entryY=1;entryDx=0;entryDy=0;exitX=0.5;exitY=0;exitDx=0;exitDy=0;fontSize=11;strokeWidth=2;" edge="1" parent="1" source="ZnwNd1amS8vzW6LrnCgQ-36" target="ZnwNd1amS8vzW6LrnCgQ-47">
          <mxGeometry width="50" height="50" relative="1" as="geometry">
            <mxPoint x="200" y="450" as="sourcePoint" />
            <mxPoint x="200" y="410" as="targetPoint" />
          </mxGeometry>
        </mxCell>
        <mxCell id="Zt5FTZZe3lsU1F_ZuzoK-3" value="" style="endArrow=none;html=1;rounded=0;entryX=0.5;entryY=1;entryDx=0;entryDy=0;fontSize=11;strokeWidth=2;exitX=0.5;exitY=0;exitDx=0;exitDy=0;" edge="1" parent="1" source="ZnwNd1amS8vzW6LrnCgQ-29" target="ZnwNd1amS8vzW6LrnCgQ-36">
          <mxGeometry width="50" height="50" relative="1" as="geometry">
            <mxPoint x="420" y="200" as="sourcePoint" />
            <mxPoint x="430" y="90" as="targetPoint" />
          </mxGeometry>
        </mxCell>
        <mxCell id="Zt5FTZZe3lsU1F_ZuzoK-5" value="" style="endArrow=none;html=1;rounded=0;entryX=1;entryY=0;entryDx=0;entryDy=0;fontSize=11;strokeWidth=2;exitX=0;exitY=1;exitDx=0;exitDy=0;" edge="1" parent="1" source="ZnwNd1amS8vzW6LrnCgQ-36" target="ZnwNd1amS8vzW6LrnCgQ-44">
          <mxGeometry width="50" height="50" relative="1" as="geometry">
            <mxPoint x="430" y="210" as="sourcePoint" />
            <mxPoint x="430" y="170" as="targetPoint" />
          </mxGeometry>
        </mxCell>
        <mxCell id="Zt5FTZZe3lsU1F_ZuzoK-7" value="" style="endArrow=none;html=1;rounded=0;entryX=0.5;entryY=0;entryDx=0;entryDy=0;fontSize=11;strokeWidth=2;exitX=0.5;exitY=1;exitDx=0;exitDy=0;" edge="1" parent="1" source="ZnwNd1amS8vzW6LrnCgQ-29" target="_PjYLiZ7u1xAUvMMXe8_-4">
          <mxGeometry width="50" height="50" relative="1" as="geometry">
            <mxPoint x="416" y="164" as="sourcePoint" />
            <mxPoint x="331" y="219" as="targetPoint" />
          </mxGeometry>
        </mxCell>
        <mxCell id="Zt5FTZZe3lsU1F_ZuzoK-8" value="" style="endArrow=none;html=1;rounded=0;entryX=1;entryY=0;entryDx=0;entryDy=0;fontSize=11;strokeWidth=2;exitX=0;exitY=1;exitDx=0;exitDy=0;" edge="1" parent="1" source="_PjYLiZ7u1xAUvMMXe8_-4" target="ZnwNd1amS8vzW6LrnCgQ-21">
          <mxGeometry width="50" height="50" relative="1" as="geometry">
            <mxPoint x="430" y="270" as="sourcePoint" />
            <mxPoint x="430" y="310" as="targetPoint" />
          </mxGeometry>
        </mxCell>
        <mxCell id="Zt5FTZZe3lsU1F_ZuzoK-9" value="" style="endArrow=none;html=1;rounded=0;entryX=0.5;entryY=0;entryDx=0;entryDy=0;fontSize=11;strokeWidth=2;exitX=0.5;exitY=1;exitDx=0;exitDy=0;" edge="1" parent="1" source="_PjYLiZ7u1xAUvMMXe8_-4" target="ZnwNd1amS8vzW6LrnCgQ-23">
          <mxGeometry width="50" height="50" relative="1" as="geometry">
            <mxPoint x="416" y="338" as="sourcePoint" />
            <mxPoint x="331" y="399" as="targetPoint" />
          </mxGeometry>
        </mxCell>
        <mxCell id="Zt5FTZZe3lsU1F_ZuzoK-10" value="" style="endArrow=none;html=1;rounded=0;entryX=0;entryY=0;entryDx=0;entryDy=0;fontSize=11;strokeWidth=2;exitX=1;exitY=1;exitDx=0;exitDy=0;" edge="1" parent="1" source="_PjYLiZ7u1xAUvMMXe8_-4" target="ZnwNd1amS8vzW6LrnCgQ-26">
          <mxGeometry width="50" height="50" relative="1" as="geometry">
            <mxPoint x="430" y="350" as="sourcePoint" />
            <mxPoint x="430" y="390" as="targetPoint" />
          </mxGeometry>
        </mxCell>
        <mxCell id="Zt5FTZZe3lsU1F_ZuzoK-11" value="" style="endArrow=none;html=1;rounded=0;entryX=0.5;entryY=0;entryDx=0;entryDy=0;fontSize=11;strokeWidth=2;exitX=0.5;exitY=1;exitDx=0;exitDy=0;" edge="1" parent="1" source="ZnwNd1amS8vzW6LrnCgQ-26" target="ZnwNd1amS8vzW6LrnCgQ-35">
          <mxGeometry width="50" height="50" relative="1" as="geometry">
            <mxPoint x="430" y="350" as="sourcePoint" />
            <mxPoint x="430" y="390" as="targetPoint" />
          </mxGeometry>
        </mxCell>
        <mxCell id="Zt5FTZZe3lsU1F_ZuzoK-12" value="&lt;font size=&quot;1&quot; face=&quot;Times New Roman&quot;&gt;&lt;span style=&quot;font-size: 20px;&quot;&gt;&lt;b&gt;0&lt;/b&gt;&lt;/span&gt;&lt;/font&gt;" style="text;html=1;align=center;verticalAlign=middle;resizable=0;points=[];autosize=1;strokeColor=none;fillColor=none;" vertex="1" parent="1">
          <mxGeometry x="540" y="160" width="30" height="40" as="geometry" />
        </mxCell>
        <mxCell id="Zt5FTZZe3lsU1F_ZuzoK-13" value="&lt;font size=&quot;1&quot; face=&quot;Times New Roman&quot;&gt;&lt;span style=&quot;font-size: 20px;&quot;&gt;&lt;b&gt;0&lt;/b&gt;&lt;/span&gt;&lt;/font&gt;" style="text;html=1;align=center;verticalAlign=middle;resizable=0;points=[];autosize=1;strokeColor=none;fillColor=none;" vertex="1" parent="1">
          <mxGeometry x="420" y="160" width="30" height="40" as="geometry" />
        </mxCell>
        <mxCell id="Zt5FTZZe3lsU1F_ZuzoK-14" value="&lt;font size=&quot;1&quot; face=&quot;Times New Roman&quot;&gt;&lt;span style=&quot;font-size: 20px;&quot;&gt;&lt;b&gt;0&lt;/b&gt;&lt;/span&gt;&lt;/font&gt;" style="text;html=1;align=center;verticalAlign=middle;resizable=0;points=[];autosize=1;strokeColor=none;fillColor=none;" vertex="1" parent="1">
          <mxGeometry x="340" y="150" width="30" height="40" as="geometry" />
        </mxCell>
        <mxCell id="Zt5FTZZe3lsU1F_ZuzoK-15" value="&lt;font size=&quot;1&quot; face=&quot;Times New Roman&quot;&gt;&lt;span style=&quot;font-size: 20px;&quot;&gt;&lt;b&gt;1&lt;/b&gt;&lt;/span&gt;&lt;/font&gt;" style="text;html=1;align=center;verticalAlign=middle;resizable=0;points=[];autosize=1;strokeColor=none;fillColor=none;" vertex="1" parent="1">
          <mxGeometry x="420" y="80" width="30" height="40" as="geometry" />
        </mxCell>
        <mxCell id="Zt5FTZZe3lsU1F_ZuzoK-16" value="&lt;font size=&quot;1&quot; face=&quot;Times New Roman&quot;&gt;&lt;span style=&quot;font-size: 20px;&quot;&gt;&lt;b&gt;2&lt;/b&gt;&lt;/span&gt;&lt;/font&gt;" style="text;html=1;align=center;verticalAlign=middle;resizable=0;points=[];autosize=1;strokeColor=none;fillColor=none;" vertex="1" parent="1">
          <mxGeometry x="420" y="260" width="30" height="40" as="geometry" />
        </mxCell>
        <mxCell id="Zt5FTZZe3lsU1F_ZuzoK-17" value="&lt;font size=&quot;1&quot; face=&quot;Times New Roman&quot;&gt;&lt;span style=&quot;font-size: 20px;&quot;&gt;&lt;b&gt;2&lt;/b&gt;&lt;/span&gt;&lt;/font&gt;" style="text;html=1;align=center;verticalAlign=middle;resizable=0;points=[];autosize=1;strokeColor=none;fillColor=none;" vertex="1" parent="1">
          <mxGeometry x="340" y="330" width="30" height="40" as="geometry" />
        </mxCell>
        <mxCell id="Zt5FTZZe3lsU1F_ZuzoK-18" value="&lt;font size=&quot;1&quot; face=&quot;Times New Roman&quot;&gt;&lt;span style=&quot;font-size: 20px;&quot;&gt;&lt;b&gt;2&lt;/b&gt;&lt;/span&gt;&lt;/font&gt;" style="text;html=1;align=center;verticalAlign=middle;resizable=0;points=[];autosize=1;strokeColor=none;fillColor=none;" vertex="1" parent="1">
          <mxGeometry x="470" y="330" width="30" height="40" as="geometry" />
        </mxCell>
        <mxCell id="Zt5FTZZe3lsU1F_ZuzoK-19" value="&lt;font size=&quot;1&quot; face=&quot;Times New Roman&quot;&gt;&lt;span style=&quot;font-size: 20px;&quot;&gt;&lt;b&gt;2&lt;/b&gt;&lt;/span&gt;&lt;/font&gt;" style="text;html=1;align=center;verticalAlign=middle;resizable=0;points=[];autosize=1;strokeColor=none;fillColor=none;" vertex="1" parent="1">
          <mxGeometry x="420" y="340" width="30" height="40" as="geometry" />
        </mxCell>
        <mxCell id="Zt5FTZZe3lsU1F_ZuzoK-20" value="&lt;font size=&quot;1&quot; face=&quot;Times New Roman&quot;&gt;&lt;span style=&quot;font-size: 20px;&quot;&gt;&lt;b&gt;1&lt;/b&gt;&lt;/span&gt;&lt;/font&gt;" style="text;html=1;align=center;verticalAlign=middle;resizable=0;points=[];autosize=1;strokeColor=none;fillColor=none;" vertex="1" parent="1">
          <mxGeometry x="540" y="440" width="30" height="40" as="geometry" />
        </mxCell>
        <mxCell id="Zt5FTZZe3lsU1F_ZuzoK-21" value="&lt;font size=&quot;1&quot; face=&quot;Times New Roman&quot;&gt;&lt;span style=&quot;font-size: 20px;&quot;&gt;&lt;b&gt;2&lt;/b&gt;&lt;/span&gt;&lt;/font&gt;" style="text;html=1;align=center;verticalAlign=middle;resizable=0;points=[];autosize=1;strokeColor=none;fillColor=none;" vertex="1" parent="1">
          <mxGeometry x="540" y="520" width="30" height="40" as="geometry" />
        </mxCell>
      </root>
    </mxGraphModel>
  </diagram>
</mxfile>
